<svg class="animated" id="freepik_stories-world-bicycle-day" xmlns="http://www.w3.org/2000/svg" viewBox="0 0 500 500" version="1.1" xmlns:xlink="http://www.w3.org/1999/xlink" xmlns:svgjs="http://svgjs.com/svgjs"><style>svg#freepik_stories-world-bicycle-day:not(.animated) .animable {opacity: 0;}svg#freepik_stories-world-bicycle-day.animated #freepik--background-complete--inject-1 {animation: 1.5s Infinite  linear floating;animation-delay: 0s;}svg#freepik_stories-world-bicycle-day.animated #freepik--World--inject-1 {animation: 1.5s Infinite  linear wind;animation-delay: 0s;}svg#freepik_stories-world-bicycle-day.animated #freepik--Character--inject-1 {animation: 1.5s Infinite  linear shake;animation-delay: 0s;}            @keyframes floating {                0% {                    opacity: 1;                    transform: translateY(0px);                }                50% {                    transform: translateY(-10px);                }                100% {                    opacity: 1;                    transform: translateY(0px);                }            }                    @keyframes wind {                0% {                    transform: rotate( 0deg );                }                25% {                    transform: rotate( 1deg );                }                75% {                    transform: rotate( -1deg );                }            }                    @keyframes shake {                10%, 90% {                    transform: translate3d(-1px, 0, 0);                  }                  20%, 80% {                    transform: translate3d(2px, 0, 0);                  }                  30%, 50%, 70% {                    transform: translate3d(-4px, 0, 0);                  }                  40%, 60% {                    transform: translate3d(4px, 0, 0);                  }            }        .animator-hidden { display: none; }</style><g id="freepik--background-complete--inject-1" class="animable" style="transform-origin: 250px 228.23px;"><rect x="416.78" y="398.49" width="33.12" height="0.25" style="fill: rgb(235, 235, 235); transform-origin: 433.34px 398.615px;" id="elp9phymhp26a" class="animable"></rect><rect x="322.53" y="401.21" width="8.69" height="0.25" style="fill: rgb(235, 235, 235); transform-origin: 326.875px 401.335px;" id="el45c1z4ctc5c" class="animable"></rect><rect x="396.59" y="389.21" width="19.19" height="0.25" style="fill: rgb(235, 235, 235); transform-origin: 406.185px 389.335px;" id="elli8nkkn6kp" class="animable"></rect><rect x="52.46" y="390.89" width="43.19" height="0.25" style="fill: rgb(235, 235, 235); transform-origin: 74.055px 391.015px;" id="elqxf1gz5ajjb" class="animable"></rect><rect x="104.56" y="390.89" width="6.33" height="0.25" style="fill: rgb(235, 235, 235); transform-origin: 107.725px 391.015px;" id="el309b31dnb" class="animable"></rect><rect x="131.47" y="395.11" width="93.68" height="0.25" style="fill: rgb(235, 235, 235); transform-origin: 178.31px 395.235px;" id="el8xmcfsxsubs" class="animable"></rect><path d="M237,337.8H43.92a5.71,5.71,0,0,1-5.71-5.71V60.66A5.71,5.71,0,0,1,43.92,55H237a5.71,5.71,0,0,1,5.71,5.71V332.09A5.71,5.71,0,0,1,237,337.8ZM43.92,55.2a5.47,5.47,0,0,0-5.46,5.46V332.09a5.47,5.47,0,0,0,5.46,5.46H237a5.47,5.47,0,0,0,5.46-5.46V60.66A5.47,5.47,0,0,0,237,55.2Z" style="fill: rgb(235, 235, 235); transform-origin: 140.46px 196.4px;" id="elfmt7xkatb4" class="animable"></path><path d="M453.31,337.8H260.21a5.72,5.72,0,0,1-5.71-5.71V60.66A5.72,5.72,0,0,1,260.21,55h193.1A5.71,5.71,0,0,1,459,60.66V332.09A5.71,5.71,0,0,1,453.31,337.8ZM260.21,55.2a5.47,5.47,0,0,0-5.46,5.46V332.09a5.47,5.47,0,0,0,5.46,5.46h193.1a5.47,5.47,0,0,0,5.46-5.46V60.66a5.47,5.47,0,0,0-5.46-5.46Z" style="fill: rgb(235, 235, 235); transform-origin: 356.75px 196.4px;" id="elhnk9nlulsjd" class="animable"></path><rect y="382.4" width="500" height="0.25" style="fill: rgb(235, 235, 235); transform-origin: 250px 382.525px;" id="ellv61j75ewn" class="animable"></rect><polygon points="389.35 254.1 389.35 245.81 398.12 245.81 398.12 222.86 400.99 222.86 400.99 245.81 409.75 245.81 409.75 254.1 413.9 254.1 413.9 382.62 385.21 382.62 385.21 254.1 389.35 254.1" style="fill: rgb(224, 224, 224); transform-origin: 399.555px 302.74px;" id="el58fhdx02u1h" class="animable"></polygon><path d="M309.43,265.07V382.62h40.24V274l-7.27-8.94Zm30.07,84.3h6.85v6.85H339.5Zm0-13.7h6.85v6.85H339.5Zm0-27.41h6.85v6.85H339.5Zm0-13.7h6.85v6.85H339.5Zm0-13.7h6.85v6.85H339.5Zm-13.71,54.81h6.86v6.85h-6.86Zm0-13.7h6.86v6.85h-6.86Zm0-13.71h6.86v6.85h-6.86Zm-13.7,41.11h6.85v6.85h-6.85Zm0-27.4h6.85v6.85h-6.85Zm0-13.71h6.85v6.85h-6.85Zm0-27.4h6.85v6.85h-6.85Z" style="fill: rgb(235, 235, 235); transform-origin: 329.55px 323.84px;" id="el4l4howe5lq7" class="animable"></path><path d="M128.37,382.62l12.35-.15-.89-44.27-.18-10.26v-.62l-.16-9.14,0-.6-.14-8.68v-.57l-.15-8.28v-.54l-.13-7.9v-.51l-.14-7.53v-.5l-.12-7.21v-.47l-.11-6.26a4.38,4.38,0,0,1-1,.58l.07,4.55-4.25-3.88a11.28,11.28,0,0,1-1.61-.19l5.16,4.72-6.4,0,0-5.05a3.82,3.82,0,0,1-1-.46l-.06,6v.46l-.07,7.22v.48l-.08,7.56v.5l-.07,7.91V300l-.07,8.28v.57l-.09,8.7v.59l-.09,9.15v.62L129,338.2Zm1.95-54.37h7.38l-7.43,8Zm.12-8.62,7.31,7.67h-7.36Zm-.09-10.89,7,0L130.31,316Zm.08-7.93,7,7-7,0Zm.06-9.25,6.7,0-6.74,6.59Zm.06-7.33,6.64,6.36-6.69,0Zm6.47-8.29-6.44,6,0-6Zm.95,7.38-6.54,0,6.45-6Zm.1,7.32-6.63-6.33,6.54,0Zm.13,9.12-6.83,0,6.75-6.6Zm.11,7.9-7-6.93,6.86,0Zm.13,10h-7.18l7.08-7.28Zm.08,8.6-7.31-7.64h7.21Zm.06,10.54H131l7.44-8.07Z" style="fill: rgb(235, 235, 235); transform-origin: 134.545px 325.875px;" id="elnkkbwbonnt" class="animable"></path><path d="M129.71,269.72a4.6,4.6,0,0,0,1,.46v-.75l1.2,1.1a10,10,0,0,0,1.61.2l-3-2.7-.35.32h-.5Zm8-1.33,0,1.66a3.7,3.7,0,0,0,1-.58l0-1.08Z" style="fill: rgb(235, 235, 235); transform-origin: 134.19px 269.38px;" id="eljj00emmpwlq" class="animable"></path><path d="M128.27,267.53a1.73,1.73,0,0,0,.52,1.47l.34.32a4.23,4.23,0,0,0,.58.4,4.6,4.6,0,0,0,1,.46,6.21,6.21,0,0,0,1.2.35,10,10,0,0,0,1.61.2h.73a8.68,8.68,0,0,0,3.44-.7,3.7,3.7,0,0,0,1-.58l.08-.06.33-.31a1.66,1.66,0,0,0,.47-1.43l-.74-4.11,1.94,0L134,260.15l-7,3.21,2,0Z" style="fill: rgb(235, 235, 235); transform-origin: 133.885px 265.44px;" id="el6bycenk7zfc" class="animable"></path><path d="M143.34,292.1v90.52h39.17V292.1Zm28.56,64.37h5.43v4.67H171.9Zm0-34h5.43v4.67H171.9Zm0-17h5.43v4.68H171.9ZM160.21,348h5.43v4.68h-5.43Zm0-17h5.43v4.68h-5.43Zm0-17h5.43v4.67h-5.43Zm0-17h5.43v4.67h-5.43Zm-11.69,59.54H154v4.67h-5.43Zm0-8.51H154v4.68h-5.43Zm0-25.51H154v4.67h-5.43Zm0-8.51H154v4.67h-5.43Z" style="fill: rgb(235, 235, 235); transform-origin: 162.925px 337.36px;" id="elhwhwg63jnmi" class="animable"></path><polygon points="266.03 382.62 227.03 382.62 227.03 313.93 266.03 299.17 266.03 382.62" style="fill: rgb(245, 245, 245); transform-origin: 246.53px 340.895px;" id="elgtmgabvn85v" class="animable"></polygon><rect x="243.65" y="313.42" width="5.75" height="5.75" style="fill: rgb(255, 255, 255); transform-origin: 246.525px 316.295px;" id="elhkmrtspqh0g" class="animable"></rect><rect x="256.03" y="313.42" width="5.75" height="5.75" style="fill: rgb(255, 255, 255); transform-origin: 258.905px 316.295px;" id="elu6gragtcvf" class="animable"></rect><rect x="231.28" y="323.89" width="5.75" height="5.75" style="fill: rgb(255, 255, 255); transform-origin: 234.155px 326.765px;" id="elhmi2u634yym" class="animable"></rect><rect x="243.65" y="334.35" width="5.75" height="5.75" style="fill: rgb(255, 255, 255); transform-origin: 246.525px 337.225px;" id="el6o18kh1klli" class="animable"></rect><rect x="256.03" y="334.35" width="5.75" height="5.75" style="fill: rgb(255, 255, 255); transform-origin: 258.905px 337.225px;" id="elzwozi401fb" class="animable"></rect><rect x="231.28" y="344.82" width="5.75" height="5.75" style="fill: rgb(255, 255, 255); transform-origin: 234.155px 347.695px;" id="elgyp204d6eyd" class="animable"></rect><g id="eleogy9ng14mh"><rect x="243.65" y="357.63" width="5.75" height="5.75" style="fill: rgb(255, 255, 255); transform-origin: 246.525px 360.505px; transform: rotate(180deg);" class="animable"></rect></g><g id="eluyfk5nu1vj"><rect x="231.28" y="357.63" width="5.75" height="5.75" style="fill: rgb(255, 255, 255); transform-origin: 234.155px 360.505px; transform: rotate(180deg);" class="animable"></rect></g><g id="elxoep2zcthyc"><rect x="256.03" y="368.1" width="5.75" height="5.75" style="fill: rgb(255, 255, 255); transform-origin: 258.905px 370.975px; transform: rotate(180deg);" class="animable"></rect></g><polygon points="88.9 271.23 88.9 252.17 93.46 252.17 93.46 230.9 97.3 230.9 97.3 221.29 105.01 209.9 112.73 221.29 112.73 230.9 116.56 230.9 116.56 252.17 121.13 252.17 121.13 271.23 125.75 271.23 125.75 382.62 84.28 382.62 84.28 271.23 88.9 271.23" style="fill: rgb(235, 235, 235); transform-origin: 105.015px 296.26px;" id="elrsmkfr81con" class="animable"></polygon><g id="elimw170lrhml"><rect x="102.14" y="277.17" width="5.75" height="5.75" style="fill: rgb(254, 254, 254); transform-origin: 105.015px 280.045px; transform: rotate(180deg);" class="animable"></rect></g><g id="elp7xojlx5ng"><rect x="89.76" y="277.17" width="5.75" height="5.75" style="fill: rgb(254, 254, 254); transform-origin: 92.635px 280.045px; transform: rotate(180deg);" class="animable"></rect></g><g id="els608svmm3q"><rect x="114.51" y="298.1" width="5.75" height="5.75" style="fill: rgb(254, 254, 254); transform-origin: 117.385px 300.975px; transform: rotate(180deg);" class="animable"></rect></g><g id="elhcna9il594"><rect x="89.76" y="298.1" width="5.75" height="5.75" style="fill: rgb(254, 254, 254); transform-origin: 92.635px 300.975px; transform: rotate(180deg);" class="animable"></rect></g><g id="eljzp997o9p3"><rect x="102.14" y="308.57" width="5.75" height="5.75" style="fill: rgb(254, 254, 254); transform-origin: 105.015px 311.445px; transform: rotate(180deg);" class="animable"></rect></g><g id="el3yv5t9r3b1m"><rect x="114.51" y="319.04" width="5.75" height="5.75" style="fill: rgb(254, 254, 254); transform-origin: 117.385px 321.915px; transform: rotate(180deg);" class="animable"></rect></g><g id="el6p1nw49kfrf"><rect x="102.14" y="319.04" width="5.75" height="5.75" style="fill: rgb(254, 254, 254); transform-origin: 105.015px 321.915px; transform: rotate(180deg);" class="animable"></rect></g><g id="elwodmn8jb26g"><rect x="89.76" y="329.5" width="5.75" height="5.75" style="fill: rgb(254, 254, 254); transform-origin: 92.635px 332.375px; transform: rotate(180deg);" class="animable"></rect></g><g id="elqk8bxecxyhg"><rect x="114.51" y="339.97" width="5.75" height="5.75" style="fill: rgb(254, 254, 254); transform-origin: 117.385px 342.845px; transform: rotate(180deg);" class="animable"></rect></g><g id="el9npo9w45n74"><rect x="102.14" y="350.44" width="5.75" height="5.75" style="fill: rgb(254, 254, 254); transform-origin: 105.015px 353.315px; transform: rotate(180deg);" class="animable"></rect></g><g id="elgsr2w8fzzy"><rect x="89.76" y="350.44" width="5.75" height="5.75" style="fill: rgb(254, 254, 254); transform-origin: 92.635px 353.315px; transform: rotate(180deg);" class="animable"></rect></g><path d="M49.93,280.07V382.62H84.14V263.7Zm12.34,70.6H55.88v-6.38h6.39Zm0-34.84H55.88v-6.38h6.39Zm0-23.23H55.88v-6.38h6.39ZM76,373.9H69.62v-6.38H76Zm0-34.84H69.62v-6.38H76Zm0-11.62H69.62v-6.38H76Zm0-23.22H69.62v-6.39H76Z" style="fill: rgb(230, 230, 230); transform-origin: 67.035px 323.16px;" id="elimhgerq9v7k" class="animable"></path><path d="M405.76,307l.17,75.59h42.86L449,307h-8.35l0-9.61H414.12V307Zm8.33,7.24h-5.6v-5h5.6Zm-5.47,18.18v-4.81H414v4.81Zm5.33,4.07v4.69h-5.22v-4.69Zm-5.41-13v-4.93H414v4.93Zm16.27-21.58V307H419.1v-5.14Zm0,7.33v5h-5.6v-5Zm-5.49,23.23v-4.81h5.35v4.81Zm5.32,4.07v4.69h-5.23v-4.69Zm-5.39-13v-4.93h5.48v4.93Zm16.29-21.58V307h-5.71v-5.14Zm0,7.33v5H430v-5Zm-5.53,23.23v-4.81h5.35v4.81Zm.09,4.07h5.23v4.69h-5.23Zm-.15-13v-4.93h5.47v4.93Zm16.33-9.2h-5.6v-5h5.61Zm-5.55,18.18v-4.81h5.35v4.81Zm.09,4.07h5.22v4.69h-5.22Zm-.13-13v-4.93h5.48l0,4.93Zm5.53,35.91h-5.69v-5.1h5.7Zm-5.61,17.88v-4.84h5.42l0,4.84Zm-.11-8.52v-5h5.55l0,5Zm-.12-17.68v-5.22h5.83l0,5.22Zm-4.84,8.32h-5.69v-5.1h5.69Zm-5.71,9.36v-5h5.55v5Zm-.14-17.68v-5.22h5.83v5.22Zm-10.53,12.72h5.55v5h-5.55Zm0-9.5h5.69v5.1h-5.69Zm-.17-8.44h5.83v5.22h-5.82Zm-10.37,26.58h5.42v4.84h-5.41Zm-.14-8.64h5.55v5h-5.55Zm0-9.5h5.7v5.1h-5.69Zm-.17-8.44h5.83v5.22h-5.82Z" style="fill: rgb(240, 240, 240); transform-origin: 427.38px 339.99px;" id="elupjz94gvmqi" class="animable"></path><polygon points="435.47 372.42 419.29 372.42 419.32 373.63 419.77 373.63 419.78 382.62 421.4 382.62 421.39 373.63 433.39 373.63 433.38 382.62 435 382.62 435.01 373.63 435.5 373.63 435.47 372.42" style="fill: rgb(245, 245, 245); transform-origin: 427.395px 377.52px;" id="elmrt0qf44wog" class="animable"></polygon><polygon points="427.46 382.62 421.47 382.62 421.47 373.63 427.47 373.63 427.46 382.62" style="fill: rgb(230, 230, 230); transform-origin: 424.47px 378.125px;" id="eltyg44tihubf" class="animable"></polygon><polygon points="433.31 382.62 427.32 382.62 427.32 373.63 433.32 373.63 433.31 382.62" style="fill: rgb(235, 235, 235); transform-origin: 430.32px 378.125px;" id="ela26y2fyhjs8" class="animable"></polygon><path d="M350.78,307l.18,75.59h42.85l.24-75.59H385.7l0-9.61H359.15V307Zm8.33,7.24h-5.6v-5h5.61Zm-5.46,18.18v-4.81H359v4.81Zm5.32,4.07v4.69h-5.23v-4.69Zm-5.4-13v-4.93H359v4.93Zm16.26-21.58V307h-5.71v-5.14Zm0,7.33v5h-5.61v-5Zm-5.5,23.23v-4.81h5.35v4.81Zm5.32,4.07v4.69h-5.22v-4.69Zm-5.39-13v-4.93h5.48v4.93Zm16.3-21.58V307h-5.71v-5.14Zm0,7.33v5H375v-5Zm-5.53,23.23v-4.81h5.35v4.81Zm.09,4.07h5.23v4.69h-5.22Zm-.14-13v-4.93h5.48v4.93Zm16.33-9.2h-5.61v-5h5.61Zm-5.56,18.18,0-4.81h5.35l0,4.81Zm.09,4.07h5.23v4.69h-5.23Zm-.13-13v-4.93h5.48v4.93Zm5.54,35.91h-5.69v-5.1h5.69Zm-5.62,17.88v-4.84h5.42v4.84Zm-.11-8.52v-5h5.55v5Zm-.12-17.68v-5.22h5.83v5.22Zm-4.84,8.32h-5.69v-5.1h5.7Zm-5.71,9.36v-5h5.55v5Zm-.14-17.68v-5.22h5.83v5.22Zm-10.53,12.72h5.55v5h-5.55Zm0-9.5h5.69v5.1h-5.69Zm-.16-8.44h5.83v5.22h-5.82ZM353.7,372.42h5.42v4.84h-5.42Zm-.13-8.64h5.55v5h-5.55Zm0-9.5h5.7v5.1h-5.68Zm-.16-8.44h5.83v5.22h-5.82Z" style="fill: rgb(240, 240, 240); transform-origin: 372.415px 339.99px;" id="ell14u4otyrw" class="animable"></path><polygon points="380.49 372.42 364.32 372.42 364.35 373.63 364.8 373.63 364.8 382.62 366.42 382.62 366.42 373.63 378.42 373.63 378.41 382.62 380.02 382.62 380.04 373.63 380.52 373.63 380.49 372.42" style="fill: rgb(245, 245, 245); transform-origin: 372.42px 377.52px;" id="elsfbu1pm6zva" class="animable"></polygon><polygon points="372.49 382.62 366.5 382.62 366.49 373.63 372.49 373.63 372.49 382.62" style="fill: rgb(230, 230, 230); transform-origin: 369.49px 378.125px;" id="el3b7jiapadq9" class="animable"></polygon><polygon points="378.33 382.62 372.34 382.62 372.34 373.63 378.35 373.63 378.33 382.62" style="fill: rgb(235, 235, 235); transform-origin: 375.345px 378.125px;" id="elguoexjrkjun" class="animable"></polygon><path d="M300.31,173l37.93-2.21a6.88,6.88,0,0,1,3.84.91h0c12.53,10.86,26.05,3.61,32-.67a14.8,14.8,0,0,1,7.73-2.78l42.25-2.46c15.85-.92,18.39-23.34,3.11-27.68l-.59-.16c15.76-14.76-22.28-41.74-59.4.84,2.29-13.61-32.51-6.71-42.17,12.24C320.49,139.25,288.25,162.1,300.31,173Z" style="fill: rgb(240, 240, 240); transform-origin: 367.506px 146.621px;" id="el7qxg6q58eik" class="animable"></path><path d="M148.87,184.93l-20.54-.4-1.71.73a33.74,33.74,0,0,1-29.12-1.32h0l-17.19-.33s-16-6.37-13.57-22.36,26.4-2.17,26.4-2.17-6.92-22.52,16.46-15.72,25.25,29,25.25,29S165.82,167.59,148.87,184.93Z" style="fill: rgb(240, 240, 240); transform-origin: 110.215px 165.011px;" id="eldusjbqs77jb" class="animable"></path><path d="M219.25,199.45H275.4c7.2,0,8.93-10.07,2.14-12.44l-.26-.08c7.51-6.27-9-19.47-26.89-1.19,1.4-6.09-14.52-3.89-19.39,4.42C229.27,184.7,214.08,194.19,219.25,199.45Z" style="fill: rgb(240, 240, 240); transform-origin: 249.999px 187.94px;" id="elvgt6danf6kg" class="animable"></path></g><g id="freepik--Shadow--inject-1" class="animable" style="transform-origin: 245.18px 412.39px;"><ellipse id="freepik--path--inject-1" cx="245.18" cy="412.39" rx="193.89" ry="11.32" style="fill: rgb(245, 245, 245); transform-origin: 245.18px 412.39px;" class="animable"></ellipse></g><g id="freepik--Text--inject-1" class="animable animator-hidden" style="transform-origin: 250px 89.9913px;"><path d="M121.62,85l-5.27,16.13h-4l-3.55-10.92-3.66,10.92h-4L95.84,85h3.87l3.64,11.34L107.15,85h3.46l3.69,11.43L118.05,85Z" style="fill: rgb(38, 50, 56); transform-origin: 108.73px 93.065px;" id="el44qoqsw5zuc" class="animable"></path><path d="M122.5,93c0-4.8,3.73-8.34,8.82-8.34s8.82,3.52,8.82,8.34-3.75,8.34-8.82,8.34S122.5,97.82,122.5,93Zm13.87,0a5.05,5.05,0,1,0-5.05,5.16A4.93,4.93,0,0,0,136.37,93Z" style="fill: rgb(38, 50, 56); transform-origin: 131.32px 93px;" id="elcc3q2pco3pk" class="animable"></path><path d="M153.23,101.09l-3.11-4.49h-3.44v4.49H143V85h7c4.31,0,7,2.24,7,5.85a5.25,5.25,0,0,1-3.32,5.1l3.62,5.18ZM149.73,88h-3v5.62h3c2.28,0,3.43-1.05,3.43-2.81S152,88,149.73,88Z" style="fill: rgb(38, 50, 56); transform-origin: 150.15px 93.065px;" id="elz3v7yya70l" class="animable"></path><path d="M159.88,85h3.74V98.05h8.08v3H159.88Z" style="fill: rgb(38, 50, 56); transform-origin: 165.79px 93.025px;" id="eldbput0ggvo7" class="animable"></path><path d="M173.8,85h7.32c5.28,0,8.9,3.18,8.9,8.07s-3.62,8.06-8.9,8.06H173.8ZM180.94,98c3.2,0,5.3-1.92,5.3-5s-2.1-5-5.3-5h-3.41V98Z" style="fill: rgb(38, 50, 56); transform-origin: 181.91px 93.065px;" id="elg9k3w6emxbj" class="animable"></path><path d="M354.7,84.81H362c5.28,0,8.9,3.18,8.9,8.07s-3.62,8.06-8.9,8.06H354.7Zm7.14,13.07c3.2,0,5.3-1.92,5.3-5s-2.1-5-5.3-5h-3.41v10Z" style="fill: rgb(38, 50, 56); transform-origin: 362.8px 92.875px;" id="el7od1se909hf" class="animable"></path><path d="M384.12,97.49h-7.49l-1.43,3.45h-3.83l7.19-16.13h3.69l7.21,16.13h-3.92Zm-1.18-2.84-2.56-6.17-2.55,6.17Z" style="fill: rgb(38, 50, 56); transform-origin: 380.415px 92.875px;" id="eldtnfv0mmn4u" class="animable"></path><path d="M397.89,95.23v5.71h-3.73V95.18l-6.25-10.37h4L396.19,92l4.3-7.17h3.67Z" style="fill: rgb(38, 50, 56); transform-origin: 396.035px 92.875px;" id="elst2jmu8v7h" class="animable"></path><path d="M223,95c0,3.85-3.05,6.07-8.9,6.07H202.58V78.83h10.87c5.57,0,8.43,2.33,8.43,5.79a5.36,5.36,0,0,1-3,4.9A5.49,5.49,0,0,1,223,95ZM207.7,82.71V88h5.12c2.51,0,3.88-.89,3.88-2.64s-1.37-2.61-3.88-2.61Zm10.11,11.77c0-1.88-1.43-2.77-4.1-2.77h-6v5.5h6C216.38,97.21,217.81,96.39,217.81,94.48Z" style="fill: rgb(83, 130, 33); transform-origin: 212.791px 89.95px;" id="eljmi1qppituk" class="animable"></path><path d="M226.91,78.83h5.15v22.26h-5.15Z" style="fill: rgb(83, 130, 33); transform-origin: 229.485px 89.96px;" id="elh3pa1dt0sav" class="animable"></path><path d="M235.94,90c0-6.71,5.15-11.51,12.08-11.51a11.48,11.48,0,0,1,9.16,4l-3.31,3a7.14,7.14,0,0,0-5.59-2.61,7.13,7.13,0,1,0,0,14.25,7.08,7.08,0,0,0,5.59-2.64l3.31,3a11.43,11.43,0,0,1-9.19,4C241.09,101.48,235.94,96.67,235.94,90Z" style="fill: rgb(83, 130, 33); transform-origin: 246.56px 89.9911px;" id="elgaovhfq9nqj" class="animable"></path><path d="M271.11,93.21v7.88H266v-8l-8.62-14.31h5.47l5.95,9.89,5.94-9.89h5.06Z" style="fill: rgb(83, 130, 33); transform-origin: 268.59px 89.935px;" id="el9kjca4eoe2a" class="animable"></path><path d="M279.57,90c0-6.71,5.15-11.51,12.09-11.51a11.46,11.46,0,0,1,9.15,4l-3.3,3a7.16,7.16,0,0,0-5.6-2.61,7.13,7.13,0,0,0,0,14.25,7.1,7.1,0,0,0,5.6-2.64l3.3,3a11.41,11.41,0,0,1-9.19,4C284.72,101.48,279.57,96.67,279.57,90Z" style="fill: rgb(83, 130, 33); transform-origin: 290.19px 89.9913px;" id="el05fb68ju8bfg" class="animable"></path><path d="M304.28,78.83h5.15V96.9H320.6v4.19H304.28Z" style="fill: rgb(83, 130, 33); transform-origin: 312.44px 89.96px;" id="elg61cmh9metg" class="animable"></path><path d="M340.73,97v4.13H323.49V78.83h16.82V83h-11.7V87.8H339v4H328.61V97Z" style="fill: rgb(83, 130, 33); transform-origin: 332.11px 89.98px;" id="elbr58jrpnaua" class="animable"></path></g><g id="freepik--World--inject-1" class="animable animator-active" style="transform-origin: 246.295px 358.49px;"><path d="M382.37,417.61q-13.8.76-27.61,1.38-5.83.25-11.69.48-55.77,2.2-111.59,1.86-60.64-.37-121.26-3.75a136.89,136.89,0,0,1,272.15,0Z" style="fill: rgb(83, 130, 33); transform-origin: 246.295px 358.49px;" id="elcrblp8r531d" class="animable"></path><g id="elcy9ttx2s9ub"><path d="M382.37,417.61q-13.8.76-27.61,1.38-5.83.25-11.69.48-55.77,2.2-111.59,1.86-60.64-.37-121.26-3.75a136.89,136.89,0,0,1,272.15,0Z" style="opacity: 0.3; transform-origin: 246.295px 358.49px;" class="animable"></path></g><g id="elib3xcb87ohf"><path d="M176.56,351.81c-1.58-1.2-9.16,1.39-9.18-.86,0-1.5,5.1-5.69,6.06-7.56,1.41-2.77.68-6.64,2-9.24.72-1.43,2.68-4.74,4.29-6.1,7.7-6.5,19.44-13.55,29.22-14,3.52-.17,8.35,5.87,9.14,10.58.47,2.8,0,11.11-2.47,14-3.73,4.39-11.9,4.44-16.24,7.86-5.06,4-7.51,13.34-13.33,16.47-1.62.87-4.7-.84-5.75-1.73C178.36,359.57,178.39,353.18,176.56,351.81Z" style="fill: rgb(255, 255, 255); opacity: 0.7; transform-origin: 192.816px 338.623px;" class="animable"></path></g><g id="el5i0zgg5kfgc"><path d="M252.27,367.44c1.65-.17,5.29-1.06,6.29-2.54,1.62-2.39,2.23-9.59.54-11.62-.71-.85-3.37-.67-4.28.07-1.18,1-.86,5.11-2,6.14s-4.5-.43-5.52.73-1.3,4.94-.51,6.1S250.84,367.58,252.27,367.44Z" style="fill: rgb(255, 255, 255); opacity: 0.7; transform-origin: 253.221px 360.102px;" class="animable"></path></g><g id="elixzcwf2ydcj"><path d="M382.37,417.61q-13.8.76-27.61,1.38c-.35-1.67-.71-3.47-1.66-4.07-2.35-1.52-10.42-1.6-11,.47a5.08,5.08,0,0,0,.93,4.08q-55.77,2.2-111.59,1.86l.06-.1c5-8.25,15.79-16.68,24.7-19.61,5-1.66,12.32-2.09,16.9.57,1.75,1,2.09,6.44,3.66,8,2.26,2.19,8.53,4.72,11.62,4.91,6.48.4,15.3-.58,20-4.79,1.38-1.22,2.14-5.91,1.53-7.88-.87-2.81-5.39-7.94-8.2-8.6-2.38-.58-6.48,4.23-8.84,3.57-3.33-.94-5.34-10.28-8.63-11.07a4.14,4.14,0,0,0-3.5,1.82c-1,2.55,4.76,7.88,3.75,10.42-.8,2-6.19,5.14-7.79,3.65-1.31-1.21,2.67-5,2.35-6.73-.43-2.35-3.72-7-6-7.36-1.71-.29-4.26,3.26-5.95,3.68-2.18.55-7.06-1.92-8.91-.57-1.4,1-.56,5.67-1.94,6.74-1.94,1.49-7.82,1.61-9.62.06-2.39-2.06-3.93-10.24-1.8-12.78,1.61-1.89,8.1,2,9.4-.11.92-1.46-2.82-4.37-2.65-6.08.19-2,2.79-5.56,4.33-6.77,2.09-1.65,8.2-1,9.74-3.14,1.39-2-1.5-8.19.19-9.8,1.39-1.32,5.81-.18,7.12,1.21s.05,7.79,1.72,8.58c4.56,2.12,13.35-2,15.47-6,2-3.71,1.18-12.23-2.08-15.3-1.09-1-4.65,1.06-5.65,2.35s-.26,5.16-1.36,6.1c-1.58,1.36-6.37,1.14-8.12,0s-3.68-5.78-3.7-8a28.11,28.11,0,0,1,4.58-14.7c2.06-3.09,8.66-7.28,11.59-7.17,5.88.23,11.88,6.22,17.66,8,1.17.36,3.66.2,4.88.28,3.41.21,10.13-1.45,13.65,1,.85.58,1.6,3.25,2.48,3.71,2.85,1.52,8.52-.19,9.23-2.6.29-1-2-4.2-1.92-5.32a6.53,6.53,0,0,1,2.47-4.14A136.62,136.62,0,0,1,382.37,417.61Z" style="fill: rgb(255, 255, 255); opacity: 0.7; transform-origin: 306.905px 373.902px;" class="animable"></path></g><g id="el0y315hi4yaun"><path d="M114.5,407.89c.74.32,2.89.44,3.63-.15,1.75-1.36.22-5.82,1.66-7.36,6.1-6.56,18.41-6.1,24.14-13.18,1.6-2-.85-7.12,1.32-8.62,6.84-4.72,17.72,5.16,23.71.83,3.53-2.56,6.69-11.39,5-15.39-.3-.74-4.14,1.05-4.92.49-1.56-1.12,1-8.05-.38-8.53-4.08-1.39-10.89,2.22-15.17,4.56-1.18.65-3.26,3.26-4.41,3.63-2.44.77-7.23-.9-5.94-2.66,2.85-3.9,10.25-4.93,14.33-8.07,3.58-2.77,9.89-8.52,9.81-11.48-.1-4-17.19.51-21.46,2.66-2.52,1.27-8,6.52-10.56,7.77a136.25,136.25,0,0,0-23,51.88C112.94,405.74,113.44,407.44,114.5,407.89Z" style="fill: rgb(255, 255, 255); opacity: 0.7; transform-origin: 143.344px 374.259px;" class="animable"></path></g></g><g id="freepik--Character--inject-1" class="animable" style="transform-origin: 248.466px 220.57px;"><path d="M189.59,241.69a33.72,33.72,0,1,1-32.72,34.69,33.73,33.73,0,0,1,32.72-34.69m-.14-4.84a38.56,38.56,0,1,0,39.66,37.43h0a38.57,38.57,0,0,0-39.67-37.42h0Z" style="fill: rgb(38, 50, 56); transform-origin: 190.566px 275.399px;" id="elsbcqvjeqh4j" class="animable"></path><path d="M190.55,311.12a35.72,35.72,0,0,1-1-71.43h0a35.72,35.72,0,1,1,2.08,71.41Zm-.9-67.43a31.81,31.81,0,0,0-30.78,32.63,31.72,31.72,0,1,0,30.78-32.63Z" style="fill: rgb(83, 130, 33); transform-origin: 190.497px 275.397px;" id="elayh6biokock" class="animable"></path><path d="M305.37,238.32A33.72,33.72,0,1,1,272.66,273h0a33.74,33.74,0,0,1,32.72-34.68m-.14-4.84a38.56,38.56,0,1,0,39.67,37.42,38.56,38.56,0,0,0-39.67-37.42Z" style="fill: rgb(38, 50, 56); transform-origin: 306.366px 272.024px;" id="elklxuqdky72e" class="animable"></path><path d="M190.4,269.45a5.95,5.95,0,1,1-5.77,6.12A6,6,0,0,1,190.4,269.45Z" style="fill: rgb(38, 50, 56); transform-origin: 190.578px 275.397px;" id="eltos0h14zmms" class="animable"></path><path d="M306,259.45a12.58,12.58,0,1,0,12.94,12.2A12.58,12.58,0,0,0,306,259.45Zm.6,20.57a8,8,0,1,1,7.77-8.24A8,8,0,0,1,306.59,280Z" style="fill: rgb(38, 50, 56); transform-origin: 306.366px 272.025px;" id="elcy3gq8zwkwf" class="animable"></path><g id="el01qy2fwapb5j"><path d="M306,259.45a12.58,12.58,0,1,0,12.94,12.2A12.58,12.58,0,0,0,306,259.45Zm.6,20.57a8,8,0,1,1,7.77-8.24A8,8,0,0,1,306.59,280Z" style="fill: rgb(255, 255, 255); opacity: 0.5; transform-origin: 306.366px 272.025px;" class="animable"></path></g><path d="M190.2,262.82A12.58,12.58,0,1,0,203.14,275,12.59,12.59,0,0,0,190.2,262.82Zm.59,20.58a8,8,0,1,1,7.77-8.24A8,8,0,0,1,190.79,283.4Z" style="fill: rgb(38, 50, 56); transform-origin: 190.566px 275.395px;" id="elet2lnc68bpr" class="animable"></path><g id="elditsm7mqyll"><path d="M190.2,262.82A12.58,12.58,0,1,0,203.14,275,12.59,12.59,0,0,0,190.2,262.82Zm.59,20.58a8,8,0,1,1,7.77-8.24A8,8,0,0,1,190.79,283.4Z" style="fill: rgb(255, 255, 255); opacity: 0.5; transform-origin: 190.566px 275.395px;" class="animable"></path></g><path d="M187.56,272.18h0a4.16,4.16,0,0,1,1.11-.18l.06,0,.07,0,52.86-5.69a7.17,7.17,0,0,1,2.48,14,7.06,7.06,0,0,1-1.71.31L189,280.23h-.06a4.14,4.14,0,0,1-1.38-8.08m-.54-1.91a6,6,0,0,0,2,11.65l53.5.34a8.78,8.78,0,0,0,2.21-.4,9,9,0,0,0-3.19-17.53L188.6,270a5.76,5.76,0,0,0-1.6.26Z" style="fill: rgb(83, 130, 33); transform-origin: 216.959px 273.262px;" id="eluhb94x9l0pf" class="animable"></path><path d="M242.37,278.44h-.26a1.83,1.83,0,0,1-1.45-1.05l-18.9-59.26a1.81,1.81,0,1,1,3.3-1.5l17.65,56.49,47.58-51a1.82,1.82,0,0,1,2.87,2.22l-49.39,53.4A1.79,1.79,0,0,1,242.37,278.44Z" style="fill: rgb(38, 50, 56); transform-origin: 257.527px 247.003px;" id="elsqb1keg5oe8" class="animable"></path><path d="M190.61,276.61a1.22,1.22,0,0,1-1.25-1.18,1.15,1.15,0,0,1,.1-.52l40.87-31.2a1.21,1.21,0,1,1,2.27.85l0,.12-40.87,31.2A1.21,1.21,0,0,1,190.61,276.61Z" style="fill: rgb(38, 50, 56); transform-origin: 211.018px 259.767px;" id="elykb4m8vlcz" class="animable"></path><path d="M223.12,200.08s-1.77,15.93-.47,15.66S256,214,256,214L243.3,245.78l7.58.86s23-34,21.23-41.74S223.12,200.08,223.12,200.08Z" style="fill: rgb(83, 130, 33); transform-origin: 247.19px 223.09px;" id="el4pzp3m17d8" class="animable"></path><g id="elxl5ip6i0l3"><g style="opacity: 0.3; transform-origin: 247.19px 223.09px;" class="animable"><path d="M223.12,200.08s-1.77,15.93-.47,15.66S256,214,256,214L243.3,245.78l7.58.86s23-34,21.23-41.74S223.12,200.08,223.12,200.08Z" id="ell9nqnl82v1b" class="animable" style="transform-origin: 247.19px 223.09px;"></path></g></g><g id="elvnuenurme0m"><path d="M226.79,209.32l3,6c5.48-.24,16.75-.87,16.75-.87C242.08,211,231,208.44,226.79,209.32Z" style="opacity: 0.2; isolation: isolate; transform-origin: 236.665px 212.233px;" class="animable"></path></g><polygon points="240.27 256.91 245.94 256.33 250.05 245.64 244.78 245.24 240.27 256.91" style="fill: rgb(255, 139, 123); transform-origin: 245.16px 251.075px;" id="elcg370qi98vc" class="animable"></polygon><g id="el1r79bq4pf8k"><polygon points="250.05 245.65 248.06 250.83 242.65 250.75 244.77 245.24 250.05 245.65" style="opacity: 0.2; isolation: isolate; transform-origin: 246.35px 248.035px;" class="animable"></polygon></g><polygon points="252.29 248.23 241.85 247.84 241.97 244.47 253.06 244.71 252.29 248.23" style="fill: rgb(83, 130, 33); transform-origin: 247.455px 246.35px;" id="elbldb33pjpd6" class="animable"></polygon><path d="M245.45,254.89l-5.66.06a.46.46,0,0,0-.44.36l-1,4.61a.74.74,0,0,0,.58.89l.15,0c2-.06,5-.2,7.55-.22,3,0,4,.15,7.46.12,2.13,0,2.7-2.18,1.8-2.37-4-.84-5.72-.95-9.24-3.07A2.46,2.46,0,0,0,245.45,254.89Z" style="fill: rgb(83, 130, 33); transform-origin: 247.316px 257.85px;" id="elebjlms1vuih" class="animable"></path><path d="M249.15,255.86a7.73,7.73,0,0,1-1.36-.12.14.14,0,0,1-.1-.1.1.1,0,0,1,.05-.11c.18-.12,1.82-1.15,2.4-.9a.38.38,0,0,1,.22.32.7.7,0,0,1-.23.62A1.64,1.64,0,0,1,249.15,255.86Zm-1-.3a2.6,2.6,0,0,0,1.82-.16.49.49,0,0,0,.15-.43.14.14,0,0,0-.09-.13c-.28-.13-1.21.32-1.88.7Z" style="fill: rgb(83, 130, 33); transform-origin: 249.027px 255.226px;" id="ela7jvrea2tdj" class="animable"></path><path d="M247.81,255.73h-.08a.16.16,0,0,1,0-.11c0-.06.07-1.47.65-1.95a.64.64,0,0,1,.51-.17h0a.4.4,0,0,1,.41.28c.13.57-.86,1.65-1.39,2Zm1-2a.5.5,0,0,0-.28.12,2.67,2.67,0,0,0-.56,1.55c.51-.4,1.17-1.24,1.07-1.55,0,0,0-.1-.19-.11h0Z" style="fill: rgb(83, 130, 33); transform-origin: 248.516px 254.638px;" id="elmzlv8xxk41s" class="animable"></path><path d="M306.33,307.74a35.72,35.72,0,0,1-1-71.42h0a35.72,35.72,0,0,1,2.09,71.41Zm-.9-67.43A31.82,31.82,0,0,0,274.65,273a31.73,31.73,0,1,0,30.78-32.63Z" style="fill: rgb(83, 130, 33); transform-origin: 306.433px 272.023px;" id="elfkjb983aq7f" class="animable"></path><path d="M287.8,217.13l-56.65,25.16a1.82,1.82,0,1,1-.44-3.62l56.2-24.48Z" style="fill: rgb(38, 50, 56); transform-origin: 258.451px 228.247px;" id="elcy7dz98ob2d" class="animable"></path><path d="M241.28,302.21l-10.68.31a1.21,1.21,0,0,1-.07-2.42l10.68-.31a1.21,1.21,0,1,1,.07,2.42Z" style="fill: rgb(38, 50, 56); transform-origin: 235.907px 301.155px;" id="eljnj2ymajg8" class="animable"></path><path d="M236.54,301.49a1.19,1.19,0,0,1-1.21-1.5l9.57-38.88a1.21,1.21,0,0,1,2.34.58l-9.57,38.86A1.2,1.2,0,0,1,236.54,301.49Z" style="fill: rgb(38, 50, 56); transform-origin: 241.272px 280.892px;" id="el5305ajj9r2a" class="animable"></path><path d="M250.33,269l-10.69.31a1.21,1.21,0,0,1-.07-2.42l10.69-.31a1.21,1.21,0,0,1,.07,2.42Z" style="fill: rgb(38, 50, 56); transform-origin: 244.95px 267.945px;" id="elxy0s4yftacd" class="animable"></path><path d="M251.34,262.72l-10.68.31a1.21,1.21,0,1,1-.07-2.42l10.68-.31a1.21,1.21,0,0,1,.07,2.42Z" style="fill: rgb(38, 50, 56); transform-origin: 245.963px 261.665px;" id="elaejqt6hu8b8" class="animable"></path><path d="M306.86,273.74a1.73,1.73,0,0,1-.45.1,1.82,1.82,0,0,1-1.8-1.32l-7.83-26-8.84-29.42-.14.06-.89-2.94,2.13-.93a1.81,1.81,0,0,1,1.49.52,1.71,1.71,0,0,1,.47.79l17.1,56.93A1.8,1.8,0,0,1,306.86,273.74Z" style="fill: rgb(38, 50, 56); transform-origin: 297.537px 243.559px;" id="elrgmivus50cj" class="animable"></path><path d="M289,213.26l-2.13.93-2.14-7a1.82,1.82,0,0,1,3.31-1.5l2.45,8.07A1.81,1.81,0,0,0,289,213.26Z" style="fill: rgb(38, 50, 56); transform-origin: 287.549px 209.452px;" id="el75hbmv91k8j" class="animable"></path><path d="M241.62,273.16l-49.89,1.13a1.17,1.17,0,0,0-1.15,1.21h0a1.18,1.18,0,0,0,1.14,1.15l50.65,1.79Z" style="fill: rgb(38, 50, 56); transform-origin: 216.475px 275.8px;" id="el9sqvrdvniig" class="animable"></path><path d="M286.7,214.53l3.95,12.61a.62.62,0,0,0,.78.41l3.05-1a.61.61,0,0,0,.4-.77L291,213.07a.61.61,0,0,0-.8-.4l-3.11,1.09A.62.62,0,0,0,286.7,214.53Z" style="fill: rgb(83, 130, 33); transform-origin: 290.791px 220.105px;" id="el4boonhze5o9" class="animable"></path><polygon points="285.43 209.42 283.06 201.62 288.75 199.58 289.68 203.1 288.86 208.32 285.43 209.42" style="fill: rgb(83, 130, 33); transform-origin: 286.37px 204.5px;" id="el0k7vf8rr3m19" class="animable"></polygon><path d="M277.55,205a2.5,2.5,0,0,1-.3-5L293,198.11a2.5,2.5,0,1,1,.6,5L277.86,205A1.62,1.62,0,0,1,277.55,205Z" style="fill: rgb(83, 130, 33); transform-origin: 285.362px 201.549px;" id="elftn9jxs0u9q" class="animable"></path><path d="M207,213a.87.87,0,0,0-.45,1.6c3,1.91,8,5.11,9.87,6.47a1.74,1.74,0,0,0,1.76.16l.82-.4a42.18,42.18,0,0,1,17.15-4.19l2.54-.07a1.72,1.72,0,0,0,1.14-3l-1-1a1.73,1.73,0,0,0-1.24-.48Z" style="fill: rgb(38, 50, 56); transform-origin: 223.277px 216.743px;" id="eln193i6udnx9" class="animable"></path><path d="M241.25,268.12a6,6,0,1,1-5.78,6.12h0a6,6,0,0,1,5.78-6.12m-.09-3a9,9,0,1,0,9.24,8.71h0a9,9,0,0,0-9.23-8.72Z" style="fill: rgb(83, 130, 33); transform-origin: 241.405px 274.112px;" id="elanejyac9fog" class="animable"></path><polygon points="229.47 296.17 234.63 295.63 234.33 284.3 229.17 284.84 229.47 296.17" style="fill: rgb(255, 139, 123); transform-origin: 231.9px 290.235px;" id="elhkp75gewwn9" class="animable"></polygon><path d="M235.44,294.5l-6.31.24a.45.45,0,0,0-.42.35l-.85,4.39a.73.73,0,0,0,.62.83h.17c2-.11,3.51-.28,6-.38,1.57,0,6.31-.09,8.47-.18s2.36-2.11,1.47-2.27c-4-.66-7.07-1.68-8.39-2.71A1.28,1.28,0,0,0,235.44,294.5Z" style="fill: rgb(83, 130, 33); transform-origin: 236.469px 297.405px;" id="elvg90fa13m4l" class="animable"></path><g id="elik4e8l5fb"><polygon points="229.17 284.85 234.33 284.31 234.48 290.14 229.32 290.68 229.17 284.85" style="opacity: 0.2; isolation: isolate; transform-origin: 231.825px 287.495px;" class="animable"></polygon></g><path d="M223.53,199.14s13.76,29.2,13.21,43.51c-.59,15.68-.11,45-.11,45l-8.95.93s-4.41-27.91-4-43.19C224.17,228,198.9,208.74,206,196,214.56,197.42,223.53,199.14,223.53,199.14Z" style="fill: rgb(83, 130, 33); transform-origin: 220.749px 242.29px;" id="elbhnngqpf6pr" class="animable"></path><g id="eleu858nkr94j"><g style="opacity: 0.3; transform-origin: 220.749px 242.29px;" class="animable"><path d="M223.53,199.14s13.76,29.2,13.21,43.51c-.59,15.68-.11,45-.11,45l-8.95.93s-4.41-27.91-4-43.19C224.17,228,198.9,208.74,206,196,214.56,197.42,223.53,199.14,223.53,199.14Z" id="elj34rjthqbva" class="animable" style="transform-origin: 220.749px 242.29px;"></path></g></g><polygon points="237.42 288.57 226.34 289.93 225.93 286.81 237.8 285.15 237.42 288.57" style="fill: rgb(83, 130, 33); transform-origin: 231.865px 287.54px;" id="elwuxrc86hh9r" class="animable"></polygon><path d="M237.19,295.29a7.73,7.73,0,0,1-1.36-.12.14.14,0,0,1-.1-.1.1.1,0,0,1,.05-.11c.18-.12,1.82-1.15,2.4-.9a.38.38,0,0,1,.22.32.7.7,0,0,1-.23.62A1.64,1.64,0,0,1,237.19,295.29Zm-1-.3a2.6,2.6,0,0,0,1.82-.16.49.49,0,0,0,.15-.43.14.14,0,0,0-.09-.13c-.28-.13-1.21.32-1.88.7Z" style="fill: rgb(83, 130, 33); transform-origin: 237.067px 294.656px;" id="elgkeae44bl9" class="animable"></path><path d="M235.85,295.17h-.08a.16.16,0,0,1-.05-.11c0-.06.07-1.47.65-1.95a.64.64,0,0,1,.51-.17h0a.4.4,0,0,1,.41.28c.13.57-.86,1.65-1.39,1.95Zm1-2a.5.5,0,0,0-.28.12,2.67,2.67,0,0,0-.56,1.55c.51-.4,1.17-1.24,1.07-1.55,0,0,0-.1-.19-.11h0Z" style="fill: rgb(83, 130, 33); transform-origin: 236.511px 294.053px;" id="elerjdr7lacls" class="animable"></path><path d="M227.18,156.15l13.54,2c7.59,1.13,15.44-2.76,22-6.79l3.15,3.29S252,164.87,245.14,164.9c-3.89,0-10-1-14.53-1.93a4.84,4.84,0,0,1-3.43-6.82Z" style="fill: rgb(38, 50, 56); transform-origin: 246.292px 158.13px;" id="ellqxo57if1u" class="animable"></path><path d="M270.75,145.38c-.38,2.21-.75,4.42-1.13,6.64-1.26.8-2.35,1.88-3.61,2.69a10.63,10.63,0,0,1-3.37-3.13c.23-1,.65-2,.88-3.05.39-1.71,2.48-2.83,3.63-4.15C268.19,144.62,269.72,145.14,270.75,145.38Z" style="fill: rgb(255, 139, 123); transform-origin: 266.695px 149.545px;" id="el1dn3rc55v9w" class="animable"></path><path d="M230.06,166.61l10.14-.27,1.4-9.43s-5.64-1.11-10.93-2.18C230.45,157.79,230.28,163.54,230.06,166.61Z" style="fill: rgb(83, 130, 33); transform-origin: 235.83px 160.67px;" id="elpv9hhdtsoh7" class="animable"></path><g id="el279kej7s315"><path d="M230.06,166.61l10.14-.27,1.4-9.43s-5.64-1.11-10.93-2.18C230.45,157.79,230.28,163.54,230.06,166.61Z" style="opacity: 0.1; transform-origin: 235.83px 160.67px;" class="animable"></path></g><g id="elekzhk7s69c4"><polygon points="240.2 166.34 230.75 164.59 230.7 166.62 240.2 166.34" style="opacity: 0.2; isolation: isolate; transform-origin: 235.45px 165.605px;" class="animable"></polygon></g><path d="M206.5,159.7c2,17.74-.35,29.77-1.82,40.7,3.61.85,10.71,1.16,17.26.91a71.51,71.51,0,0,0,10.75-1.59c-.67-10.5.95-31.5,1.69-40.25a4.47,4.47,0,0,0-3.72-4.8h-.08c-.75-.12-1.56-.23-2.4-.33-.48-.05-1-.1-1.43-.13a100.65,100.65,0,0,0-11.78.2c-.74,0-1.49.11-2.22.19s-1.35.16-2,.25l-.87.13a4.09,4.09,0,0,0-3.42,4.68Z" style="fill: rgb(83, 130, 33); transform-origin: 219.539px 177.758px;" id="elfkr4oala5rn" class="animable"></path><path d="M211,166.19c.11,2.43-1.8,7.46-3.58,10.63.12-3,.13-6.26-.07-9.55Z" style="fill: rgb(83, 130, 33); transform-origin: 209.177px 171.505px;" id="eltbxknnc6l9" class="animable"></path><g id="el6kq8jnumkbk"><path d="M211,166.19c.11,2.43-1.8,7.46-3.58,10.63.12-3,.13-6.26-.07-9.55Z" style="opacity: 0.2; isolation: isolate; transform-origin: 209.177px 171.505px;" class="animable"></path></g><path d="M215.94,141.13c.8,3.78,1.66,10.7-.95,13.28,2.09,2,4.83,4.33,9.33,4.41s3.65-3,2.45-4.61c-4.25-.94-4.19-4.07-3.5-7Z" style="fill: rgb(255, 139, 123); transform-origin: 221.358px 149.976px;" id="elvxdh3gf3kk" class="animable"></path><g id="elv0g2jz64s3l"><path d="M218.92,143.58l4.33,3.58a11.23,11.23,0,0,0-.32,2.09A5.78,5.78,0,0,1,218.6,146C218.19,144.89,218.51,143.73,218.92,143.58Z" style="opacity: 0.2; isolation: isolate; transform-origin: 220.83px 146.415px;" class="animable"></path></g><path d="M212.58,137c1.59,4.89,2.27,7.83,5.43,9.73,4.77,2.85,10.31-1,10.21-6.29-.09-4.74-2.67-11.93-8-12.66a7,7,0,0,0-7.6,9.22Z" style="fill: rgb(255, 139, 123); transform-origin: 220.228px 137.704px;" id="elo6vhp44q6yd" class="animable"></path><path d="M215.88,138.23a19,19,0,0,0,1.29,2.83,9.3,9.3,0,0,0-3.19-.4,10.69,10.69,0,0,1-1.13.06,1.54,1.54,0,0,1-1-.4,1.32,1.32,0,0,1-.29-1.32,2.1,2.1,0,0,1,.86-1.11,2.55,2.55,0,0,1,1.48-.45C214.4,137.46,215.7,137.74,215.88,138.23Z" style="fill: rgb(38, 50, 56); transform-origin: 214.331px 139.25px;" id="elkrs2tu12tf" class="animable"></path><path d="M214.85,133.28s.62,2.62,1.46,5c-.62-.06-3.25,1.37-3.13,2.16.28,1.79,2,3.21,3.6,4.06,0,.56-.08,2.17-.08,2.17-1,.73-2.23,1-3.25,1.72a5.61,5.61,0,0,1-1.73.94,1.88,1.88,0,0,1-1.83-.39,1.18,1.18,0,0,1,.08-1.73,2.45,2.45,0,0,1-2.7-1.45,2.57,2.57,0,0,1,1-3,1.52,1.52,0,0,1-2-.45,2.32,2.32,0,0,1-.08-2.16,4.91,4.91,0,0,1,1.42-1.72.9.9,0,0,1-1.24-.24,1.85,1.85,0,0,1-.23-1.33,5.18,5.18,0,0,1,2-3.42c4.17-3.18,12-9.6,15.55-4.11l-.81-.22c-2.06.45-.92,1.09-2.08,1.25A10.52,10.52,0,0,0,214.85,133.28Z" style="fill: rgb(38, 50, 56); transform-origin: 214.826px 138.304px;" id="elkps19ebcxc" class="animable"></path><path d="M211.83,142.58a4.84,4.84,0,0,0,3.48,1.33c1.72-.06,2.05-1.72,1.14-3.06s-2.7-2.64-4.2-1.92A2.18,2.18,0,0,0,211.83,142.58Z" style="fill: rgb(255, 139, 123); transform-origin: 213.985px 141.318px;" id="elc346hkiyyps" class="animable"></path><path d="M220.47,136.4c.13.39.41.67.67.6s.39-.45.29-.85-.4-.68-.67-.61S220.37,136,220.47,136.4Z" style="fill: rgb(38, 50, 56); transform-origin: 220.949px 136.27px;" id="elz35h8g7ua9" class="animable"></path><path d="M225,135.21c.12.4.4.68.67.61s.4-.45.29-.86-.4-.67-.67-.6S224.94,134.81,225,135.21Z" style="fill: rgb(38, 50, 56); transform-origin: 225.49px 135.09px;" id="elkny43j8ougk" class="animable"></path><path d="M223.65,135.8a14.62,14.62,0,0,0,2.8,3,2.4,2.4,0,0,1-1.83.86Z" style="fill: rgb(255, 86, 82); transform-origin: 225.05px 137.73px;" id="elmc5w9e79gwb" class="animable"></path><path d="M223.2,141.13a3.44,3.44,0,0,1-2.62-.73.12.12,0,0,1,0-.17.11.11,0,0,1,.17,0,3.34,3.34,0,0,0,2.94.57.14.14,0,0,1,.15.09h0a.13.13,0,0,1-.09.15A3.41,3.41,0,0,1,223.2,141.13Z" style="fill: rgb(38, 50, 56); transform-origin: 222.194px 140.675px;" id="elr544fpi13do" class="animable"></path><path d="M218.68,135.28h-.12a.25.25,0,0,1-.13-.32h0a2.42,2.42,0,0,1,1.68-1.49.25.25,0,0,1,.28.2h0a.25.25,0,0,1-.19.29h0a1.89,1.89,0,0,0-1.32,1.18A.24.24,0,0,1,218.68,135.28Z" style="fill: rgb(38, 50, 56); transform-origin: 219.403px 134.374px;" id="el7x8beswmngx" class="animable"></path><path d="M226.61,133.13a.27.27,0,0,1-.22-.08,1.94,1.94,0,0,0-1.61-.73.25.25,0,1,1-.07-.49h0a2.41,2.41,0,0,1,2,.9.24.24,0,0,1,0,.34h0A.18.18,0,0,1,226.61,133.13Z" style="fill: rgb(38, 50, 56); transform-origin: 225.62px 132.479px;" id="el42vhvb01o9f" class="animable"></path><path d="M211.47,157.39l-14.7,4.28c-8.22,2.39-17.5-.73-25.33-4.22l-3,4.12s16.83,9.22,24.44,8.21c4.32-.57,10.91-2.64,15.8-4.32a5.41,5.41,0,0,0,2.78-8.07Z" style="fill: rgb(38, 50, 56); transform-origin: 190.388px 163.624px;" id="elgevpdcvvf1" class="animable"></path><path d="M161.6,152l2.25,7.19c1.52.7,2.88,1.73,4.4,2.43a11.81,11.81,0,0,0,3.27-4c-.42-1.11-1-2.14-1.44-3.25-.69-1.83-3.17-2.76-4.65-4C164.32,150.8,162.71,151.6,161.6,152Z" style="fill: rgb(255, 139, 123); transform-origin: 166.56px 155.995px;" id="el6fm4m05316y" class="animable"></path><path d="M208.91,155.17c-6.18,2.27-6.15,2.71-12.62,3.92l5.32,12.11s4.87-.39,8.12-3.28c2.4-2.13,4.21-5,3.43-9.23C212.79,156.7,210.81,154.47,208.91,155.17Z" style="fill: rgb(83, 130, 33); transform-origin: 204.817px 163.119px;" id="el8qdstnqtr9b" class="animable"></path><g id="elm17j62flh1"><path d="M208.91,155.17c-6.18,2.27-6.15,2.71-12.62,3.92l5.32,12.11s4.87-.39,8.12-3.28c2.4-2.13,4.21-5,3.43-9.23C212.79,156.7,210.81,154.47,208.91,155.17Z" style="fill: rgb(255, 255, 255); opacity: 0.1; transform-origin: 204.817px 163.119px;" class="animable"></path></g></g><defs>     <filter id="active" height="200%">         <feMorphology in="SourceAlpha" result="DILATED" operator="dilate" radius="2"></feMorphology>                <feFlood flood-color="#32DFEC" flood-opacity="1" result="PINK"></feFlood>        <feComposite in="PINK" in2="DILATED" operator="in" result="OUTLINE"></feComposite>        <feMerge>            <feMergeNode in="OUTLINE"></feMergeNode>            <feMergeNode in="SourceGraphic"></feMergeNode>        </feMerge>    </filter>    <filter id="hover" height="200%">        <feMorphology in="SourceAlpha" result="DILATED" operator="dilate" radius="2"></feMorphology>                <feFlood flood-color="#ff0000" flood-opacity="0.5" result="PINK"></feFlood>        <feComposite in="PINK" in2="DILATED" operator="in" result="OUTLINE"></feComposite>        <feMerge>            <feMergeNode in="OUTLINE"></feMergeNode>            <feMergeNode in="SourceGraphic"></feMergeNode>        </feMerge>            <feColorMatrix type="matrix" values="0   0   0   0   0                0   1   0   0   0                0   0   0   0   0                0   0   0   1   0 "></feColorMatrix>    </filter></defs></svg>