<svg data-name="Layer 3" viewBox="0 0 1000 1000" xmlns="http://www.w3.org/2000/svg"><path d="M598.421 596.234a6.567 6.567 0 0 1-4.908-6.362v-65.235a171.036 171.036 0 0 0 77.306-135.545h.643a34.292 34.292 0 0 0 34.254-34.253v-18.857a32.136 32.136 0 0 0-29.719-32.002l5.39-76.821a181.388 181.388 0 0 0-362.774 0l5.603 76.81a32.136 32.136 0 0 0-29.872 32.014v18.857a34.292 34.292 0 0 0 34.254 34.253h.583a171.036 171.036 0 0 0 77.306 135.544v65.235a6.567 6.567 0 0 1-4.908 6.362c-68.694 10.339-131.649 43.365-177.277 93.003-46.161 50.217-71.583 114.404-71.583 180.739v82.488a1.766 1.766 0 0 0 1.765 1.765h691.032a1.766 1.766 0 0 0 1.765-1.765v-82.488c0-66.335-25.422-130.522-71.583-180.739-45.628-49.638-108.583-82.664-177.277-93.003Zm72.573-214.681v-74.141h2.621a28.603 28.603 0 0 1 28.57 28.57v18.857a30.758 30.758 0 0 1-30.722 30.723h-.52c.031-1.333.051-2.669.051-4.01Zm-342.396 4.01a30.758 30.758 0 0 1-30.723-30.724v-18.857a28.602 28.602 0 0 1 28.57-28.57h2.56v74.141c0 1.34.02 2.677.052 4.01Zm4.063 2.236a1.743 1.743 0 0 0 .072-.472v-81.68a1.744 1.744 0 0 0-.197-.794v-.25c16.93-10.395 33.152-32.013 43.658-56.998 10.745-25.552 13.181-51.3 8.235-70.726h.693c27.313 12.072 67.334 19.691 111.928 19.691 45.052 0 90.49-7.402 117.82-19.691h.701c-4.946 19.427-2.51 45.174 8.235 70.726 10.506 24.985 26.728 46.688 43.657 57.078v.285a1.751 1.751 0 0 0-.136.68v81.68a1.808 1.808 0 0 0 .018.186c-3.15 89.588-77.001 161.501-167.345 161.501A167.575 167.575 0 0 1 332.661 387.8Zm69.53 211.913c.056-.009.111-.02.166-.033a10.093 10.093 0 0 0 7.66-9.807v-24.256c16.776 18.082 56.964 25.098 100.625 15.402 36.473-8.1 66.208-25.727 79.34-44.991v53.845a10.093 10.093 0 0 0 7.661 9.807c.055.014.11.025.166.033q6.203.932 12.34 2.115a2.743 2.743 0 0 0-.057.434c-.425 21.251-11.993 41.076-32.573 55.824-20.665 14.809-48.195 22.963-77.519 22.963-29.21 0-56.675-8.147-77.337-22.94-20.556-14.717-32.185-34.488-32.745-55.67a3.139 3.139 0 0 0-.084-.608q6.145-1.181 12.357-2.118Zm191.039 74.242c-24.761 18.006-57.87 27.923-93.23 27.923-35.355 0-68.464-9.925-93.229-27.95-24.269-17.664-37.83-41.216-38.307-66.452l17.942-4.407c1.59 45.75 51.348 81.51 113.594 81.51 62.37 0 112.028-35.647 113.594-81.321l17.942 4.282c-.48 25.229-14.04 48.767-38.306 66.415Z" fill="#538221" class="fill-000000"></path><path d="M495.111 391.064h9.778a12.781 12.781 0 0 0 12.767-12.767 1.765 1.765 0 0 0-3.53 0 9.247 9.247 0 0 1-9.237 9.237h-9.778a9.247 9.247 0 0 1-9.236-9.237 1.765 1.765 0 0 0-3.53 0 12.781 12.781 0 0 0 12.766 12.767ZM574.574 308.08c-4.485 0-8.12 5.877-8.12 13.127s3.635 13.126 8.12 13.126 8.12-5.877 8.12-13.126-3.635-13.127-8.12-13.127ZM551.83 287.635c19.924-10.802 42.005-7.594 59.067 8.583a1.765 1.765 0 0 0 2.428-2.562c-18.224-17.279-41.842-20.69-63.178-9.125a1.765 1.765 0 1 0 1.683 3.104ZM425.426 308.08c-4.484 0-8.12 5.877-8.12 13.127s3.636 13.126 8.12 13.126 8.12-5.877 8.12-13.126-3.635-13.127-8.12-13.127ZM448.17 287.635a1.765 1.765 0 1 0 1.683-3.104c-21.337-11.566-44.955-8.153-63.178 9.125a1.765 1.765 0 0 0 2.428 2.562c17.062-16.177 39.143-19.383 59.067-8.583ZM500 469.547a43.307 43.307 0 0 0 43.258-43.257 1.765 1.765 0 0 0-1.765-1.765h-82.985a1.765 1.765 0 0 0-1.765 1.765A43.306 43.306 0 0 0 500 469.547Zm-39.688-41.493h79.378a39.6 39.6 0 0 1-.578 5.174c-3.938 2.705-14.132 6.765-39.867 6.765-24.718 0-34.474-3.745-38.3-6.438a39.702 39.702 0 0 1-.633-5.5Z" fill="#538221" class="fill-000000"></path></svg>