<svg viewBox="0 0 512 512" xmlns="http://www.w3.org/2000/svg"><path d="m348.02 321.503-40.282-16.907V286.97c0-.078-.009-.155-.012-.232 20.471-14.2 35.45-35.669 42.549-60.884a32.67 32.67 0 0 0 31.139-32.595 34.307 34.307 0 0 0-10.978-25.04 30.73 30.73 0 0 0-2.83-2.273c4.155-52.279-6.647-92.236-32.136-118.764-32.865-34.207-77.913-33.25-81.348-33.122h-.545c-3.44-.123-48.484-1.084-81.349 33.122-25.636 26.682-36.42 66.945-32.067 119.67a32.612 32.612 0 0 0 17.644 59.002c7.796 27.68 25.1 50.808 48.309 64.608v13.357l-42.134 17.684a120.156 120.156 0 0 0-73.82 111.043v7.996c0 11.713 8.844 28.52 50.978 42.076 30.768 9.9 71.56 15.351 114.862 15.351s84.094-5.452 114.861-15.35c42.134-13.557 50.978-30.364 50.978-42.077v-7.996a120.156 120.156 0 0 0-73.819-111.043Zm-2.618-147.68s1.582-2.179 7.657-1.317v.008a16.797 16.797 0 0 1 10.453 5.713l-.007.003a22.238 22.238 0 0 1 5.909 15.028 20.663 20.663 0 0 1-16.455 20.203c.39-2.624.688-5.149.91-7.35a6 6 0 0 0-11.94-1.206 120.897 120.897 0 0 1-1.966 13.074c-.057.17-.127.333-.169.51a100.55 100.55 0 0 1-26.673 48.193c5.813-12.058 8.303-24.64 9.345-33.987.054-.24.116-.53.197-.91l-.154.545.004-.03c.024-.225.03-.448.047-.672l.103.156c7.813-36.695 16.9-53.58 22.739-57.961ZM168.285 218.49c-.032-.134-.087-.255-.127-.385a120.174 120.174 0 0 1-1.995-13.2 6 6 0 0 0-11.94 1.207c.223 2.202.523 4.729.913 7.354a20.617 20.617 0 0 1 3.455-40.802c5.22.856 15.212 15.461 23.934 53.552l2.504 13.485.002-.002a104.552 104.552 0 0 0 6.976 23.961 101.447 101.447 0 0 1-23.722-45.17Zm26.635-7.599a21.768 21.768 0 0 0-3.225 2.257q-7.147-27.34-16.023-40.498c23.015-1.359 66.944-8.744 117.241-41.586a9.615 9.615 0 0 1 12.847 2.011c7.738 9.73 18.866 22.41 31.183 32.317-8.398 7.383-15.823 23.326-22.195 47.698a21.767 21.767 0 0 0-3.155-2.199c-19.273-10.95-38.838-16.806-58.15-17.408a5.98 5.98 0 0 0-.374 0c-19.312.602-38.876 6.459-58.149 17.408Zm97.345 17.265a4.48 4.48 0 0 1-2.514-.772c-39.176-26.457-71.122-.536-71.441-.27a4.5 4.5 0 1 1-5.76-6.917 66.716 66.716 0 0 1 24.266-11.646c13.583-3.497 34.667-4.365 57.971 11.375a4.5 4.5 0 0 1-2.522 8.23Zm3.473 61.435v31.89c0 8.008-16.598 16.965-38.812 16.965s-38.812-8.957-38.812-16.966v-26.624c9.88 5.928 21.623 8.917 35.142 8.917 17.049 0 31.26-4.775 42.482-14.182ZM409.84 440.542c0 21.487-63.18 45.427-153.84 45.427s-153.84-23.94-153.84-45.427v-7.996a108.184 108.184 0 0 1 66.465-99.978l37.489-15.735v4.646c0 16.514 21.844 28.966 50.812 28.966s50.812-12.452 50.812-28.966v-3.87l35.637 14.958a108.184 108.184 0 0 1 66.465 99.98Z" fill="#525252" class="fill-000000"></path><ellipse cx="284.509" cy="179.927" rx="7.76" ry="9.228" fill="#525252" class="fill-000000"></ellipse><ellipse cx="218.022" cy="179.927" rx="7.76" ry="9.228" fill="#525252" class="fill-000000"></ellipse></svg>